{"glyphs":{"0":{"ha":640,"x_min":60,"x_max":694,"o":"m 672 789 q 691 713 688 751 q 690 635 694 675 q 681 554 685 594 q 672 474 676 514 q 664 393 668 433 q 656 313 660 353 q 640 233 651 271 q 606 158 629 196 q 485 42 560 85 q 328 0 411 0 q 179 42 244 0 q 82 157 114 85 q 63 233 67 196 q 64 313 60 271 q 72 393 68 353 q 81 474 76 433 q 89 554 85 514 q 99 635 93 594 q 114 714 103 676 q 149 789 125 751 q 269 905 196 863 q 426 947 343 947 q 576 905 510 947 q 672 789 642 863 m 393 251 q 413 280 410 265 q 419 314 417 294 q 424 347 422 331 q 426 381 425 364 l 456 651 q 449 685 457 671 q 426 706 440 699 q 395 710 413 713 q 361 696 378 708 q 341 667 344 682 q 335 633 338 651 q 332 600 333 617 q 328 567 331 583 q 314 431 321 499 q 300 296 307 364 q 306 263 297 276 q 329 242 315 249 q 360 238 343 236 q 393 251 378 239 z "},"1":{"ha":432,"x_min":107,"x_max":488,"o":"m 369 949 l 488 949 l 389 0 l 153 0 l 226 711 l 107 711 l 132 949 l 251 949 l 369 949 l 369 949 z "},"2":{"ha":654,"x_min":29,"x_max":694,"o":"m 646 238 l 622 0 l 29 0 l 58 285 l 61 308 q 136 473 75 400 q 289 576 197 546 q 335 588 313 585 q 382 593 358 592 q 428 607 408 593 q 453 649 449 621 q 440 693 457 678 q 401 709 424 708 q 358 695 379 710 q 335 651 338 681 l 97 651 q 142 785 106 726 q 231 883 178 844 q 347 938 283 921 q 470 946 410 954 q 582 902 531 938 q 665 801 633 867 q 690 710 686 758 q 683 615 694 663 q 647 524 672 568 q 582 444 621 479 q 499 386 542 407 q 404 358 457 365 q 357 356 381 356 q 313 332 333 357 q 301 311 306 324 q 295 285 297 299 q 292 258 293 271 q 290 238 292 246 l 350 238 l 372 238 l 646 238 z "},"3":{"ha":654,"x_min":54,"x_max":703,"o":"m 519 935 q 632 859 589 911 q 689 742 675 807 q 685 607 703 678 q 615 476 667 536 q 657 345 654 415 q 633 210 660 275 q 552 94 606 146 q 424 18 499 42 q 280 6 349 -7 q 160 58 211 18 q 82 160 110 97 q 63 299 54 222 l 300 299 q 320 249 297 267 q 374 243 343 232 q 399 259 389 249 q 415 283 410 269 q 418 311 419 297 q 408 338 417 325 q 386 352 400 347 q 357 358 372 357 q 327 358 342 358 q 303 357 313 357 q 245 358 274 358 q 188 358 217 358 l 211 594 l 388 594 q 423 604 407 594 q 447 630 439 614 q 456 663 456 646 q 443 694 456 681 q 414 712 431 708 q 381 709 397 715 q 351 688 364 703 q 338 654 339 674 l 100 654 q 149 792 108 729 q 248 894 189 854 q 378 946 307 933 q 519 935 450 958 z "},"4":{"ha":654,"x_min":89,"x_max":719,"o":"m 719 947 l 621 0 l 383 0 l 414 296 q 307 301 358 296 q 207 339 256 307 q 131 410 158 371 q 93 508 104 450 q 90 558 89 529 q 93 619 90 588 q 99 678 96 650 q 106 728 103 707 q 117 838 111 783 q 128 947 122 893 l 364 947 l 358 888 q 348 791 353 839 q 338 694 343 743 q 335 669 338 688 q 331 631 333 651 q 328 592 329 610 q 329 568 328 574 q 348 542 335 550 q 377 533 361 535 q 410 532 393 531 q 439 533 426 533 l 482 947 l 719 947 z "},"5":{"ha":654,"x_min":56,"x_max":724,"o":"m 343 713 l 331 594 q 420 592 376 594 q 508 569 464 589 q 580 522 551 550 q 629 450 608 493 q 654 365 649 410 q 652 276 660 321 q 624 189 644 232 q 569 110 603 146 q 460 29 519 56 q 343 1 401 3 q 231 19 285 -1 q 137 78 176 39 q 76 172 97 117 q 63 297 56 228 l 300 297 q 307 263 297 276 q 333 242 317 249 q 367 240 349 236 q 400 258 385 243 q 419 292 417 275 q 416 324 422 310 q 394 348 410 339 q 358 357 379 357 l 69 357 l 131 950 l 724 950 l 699 713 l 425 713 l 403 713 l 343 713 z "},"6":{"ha":654,"x_min":57,"x_max":699,"o":"m 618 468 q 656 308 663 396 q 594 144 649 219 q 505 56 556 89 q 399 9 454 22 q 290 3 344 -4 q 189 36 235 10 q 110 107 143 63 q 65 214 76 151 q 61 297 57 256 q 69 382 65 339 q 79 469 75 426 q 89 556 83 511 q 98 642 93 600 q 115 722 103 683 q 151 798 128 761 q 217 871 175 835 q 326 933 269 914 q 439 949 383 951 q 543 924 494 946 q 627 863 592 901 q 681 770 663 824 q 692 653 699 717 l 454 653 q 431 703 457 686 q 372 704 404 721 q 347 682 356 696 q 335 653 339 668 q 331 622 332 638 q 329 593 331 606 q 417 590 376 593 q 494 574 458 586 q 562 536 531 561 q 618 468 593 511 m 308 260 q 349 238 324 239 q 396 256 375 236 q 418 300 417 274 q 400 343 419 326 q 380 353 393 350 q 353 356 367 356 q 326 356 339 357 q 304 356 313 356 q 302 334 304 347 q 300 308 300 321 q 301 281 300 294 q 308 260 303 268 z "},"7":{"ha":654,"x_min":104,"x_max":721,"o":"m 129 949 l 721 949 l 696 711 l 438 0 l 192 0 l 451 711 l 104 711 l 129 949 l 129 949 z "},"8":{"ha":654,"x_min":50,"x_max":692,"o":"m 425 949 q 535 927 486 949 q 618 869 583 906 q 672 785 653 832 q 692 685 692 738 q 672 578 692 632 q 611 475 653 524 q 651 372 643 426 q 648 265 660 318 q 608 165 636 213 q 537 80 579 117 q 440 22 494 43 q 325 0 386 0 q 169 47 233 0 q 78 164 106 93 q 63 318 50 235 q 138 475 75 401 q 98 578 106 524 q 101 685 90 632 q 142 785 113 738 q 213 869 171 832 q 310 927 256 906 q 425 949 364 949 m 386 593 q 431 610 411 593 q 453 653 450 628 q 440 694 456 676 q 399 711 424 711 q 356 694 375 711 q 335 653 338 676 q 347 610 332 628 q 386 593 363 593 m 361 356 q 319 338 338 356 q 297 297 300 321 q 310 255 294 272 q 349 238 325 238 q 393 255 374 238 q 415 297 413 272 q 402 338 418 321 q 361 356 386 356 z "},"9":{"ha":654,"x_min":54,"x_max":696,"o":"m 682 568 q 674 481 678 524 q 664 394 669 439 q 654 308 660 350 q 636 227 649 267 q 600 151 624 188 q 535 79 576 114 q 426 17 483 36 q 313 0 368 -3 q 210 26 258 3 q 126 88 161 49 q 72 179 90 126 q 61 297 54 232 l 299 297 q 322 247 296 264 q 381 246 349 229 q 406 268 397 254 q 417 297 414 282 q 422 328 421 313 q 424 357 422 344 q 335 360 376 357 q 258 376 294 364 q 191 414 222 389 q 135 482 160 439 q 104 559 114 518 q 98 642 94 600 q 116 726 101 685 q 157 806 131 768 q 247 894 196 861 q 354 941 299 928 q 464 947 410 954 q 564 913 518 939 q 643 842 610 888 q 688 736 676 797 q 692 651 696 693 q 682 568 688 610 m 358 694 q 335 649 338 675 q 353 607 333 624 q 374 597 361 600 q 399 593 386 594 q 426 592 413 592 q 447 593 439 593 q 451 615 449 601 q 453 642 453 628 q 453 669 454 656 q 446 690 451 682 q 404 713 431 711 q 358 694 378 714 z "},"\u0000":{"ha":0,"x_min":0,"x_max":0,"o":""},"\r":{"ha":475,"x_min":0,"x_max":0,"o":""}," ":{"ha":475,"x_min":0,"x_max":0,"o":""},"E":{"ha":654,"x_min":29,"x_max":719,"o":"m 694 711 l 339 711 l 326 593 l 682 593 l 657 356 l 301 356 l 289 238 l 644 238 l 621 0 l 265 0 l 207 0 l 29 0 l 128 949 l 306 949 l 364 949 l 719 949 l 694 711 l 694 711 z "},"F":{"ha":654,"x_min":33,"x_max":725,"o":"m 700 711 l 344 711 l 332 592 l 688 592 l 663 356 l 307 356 l 294 238 l 271 0 l 211 0 l 33 0 l 132 947 l 310 947 l 369 947 l 725 947 l 700 711 l 700 711 z "},"G":{"ha":654,"x_min":57,"x_max":697,"o":"m 346 593 l 682 593 l 651 297 q 603 160 643 222 q 506 59 564 99 q 377 6 447 19 q 239 15 307 -7 q 126 85 172 36 q 65 200 81 133 q 58 268 57 235 q 63 336 58 301 q 70 406 67 372 q 76 475 74 440 q 84 544 81 510 q 92 614 88 579 q 101 683 94 649 q 122 750 107 717 q 208 866 153 817 q 335 936 264 915 q 476 944 408 958 q 593 891 543 931 q 670 790 643 851 q 689 653 697 728 l 451 653 q 439 694 454 676 q 400 713 424 711 q 358 697 376 714 q 333 657 339 681 q 323 566 326 611 q 314 475 319 521 q 303 385 310 431 q 296 293 297 339 q 310 253 294 269 q 351 239 326 238 q 393 256 375 239 q 414 297 411 274 l 421 357 l 322 357 l 346 593 z "},"H":{"ha":654,"x_min":32,"x_max":722,"o":"m 486 949 l 722 949 l 685 593 l 660 356 l 624 0 l 388 0 l 424 356 l 304 356 l 268 0 l 32 0 l 68 356 l 93 593 l 131 949 l 367 949 l 329 593 l 449 593 l 486 949 l 486 949 z "},"I":{"ha":329,"x_min":47,"x_max":383,"o":"m 146 947 l 383 947 l 285 0 l 47 0 l 146 947 l 146 947 z "},"J":{"ha":654,"x_min":44,"x_max":714,"o":"m 714 949 l 683 651 l 664 474 q 657 405 661 439 q 650 335 653 371 q 640 267 646 300 q 619 199 635 233 q 532 83 588 132 q 406 13 476 33 q 265 4 332 -10 q 148 58 197 18 q 72 159 99 97 q 53 296 44 221 l 57 296 l 290 296 q 302 255 288 272 q 340 238 317 238 q 383 252 364 236 q 408 292 403 268 q 419 383 415 338 q 426 474 422 429 l 446 656 l 476 949 l 714 949 z "},"U":{"ha":654,"x_min":58,"x_max":722,"o":"m 722 947 l 685 592 l 672 474 q 664 393 668 433 q 656 313 660 353 q 640 233 651 271 q 604 158 628 196 q 484 42 558 85 q 326 0 410 0 q 178 42 243 0 q 81 157 113 83 q 62 233 65 194 q 63 313 58 271 q 71 393 67 353 q 79 474 75 433 l 93 603 l 129 947 l 367 947 l 336 651 l 329 592 q 321 509 325 550 q 313 426 317 468 q 306 371 310 399 q 300 315 303 343 q 306 260 297 283 q 350 236 314 236 q 401 260 386 236 q 418 315 415 283 q 424 371 421 343 q 431 426 428 399 q 440 521 435 474 q 450 615 444 568 l 454 651 l 485 947 l 722 947 z "},"O":{"ha":640,"x_min":60,"x_max":694,"o":"m 672 789 q 691 713 688 751 q 690 635 694 675 q 681 554 685 594 q 672 474 676 514 q 664 393 668 433 q 656 313 660 353 q 640 233 651 271 q 606 158 629 196 q 485 42 560 85 q 328 0 411 0 q 179 42 244 0 q 82 157 114 85 q 63 233 67 196 q 64 313 60 271 q 72 393 68 353 q 81 474 76 433 q 89 554 85 514 q 99 635 93 594 q 114 714 103 676 q 149 789 125 751 q 269 905 196 863 q 426 947 343 947 q 576 905 510 947 q 672 789 642 863 m 393 251 q 413 280 410 265 q 419 314 417 294 q 424 347 422 331 q 426 381 425 364 l 456 651 q 449 685 457 671 q 426 706 440 699 q 395 710 413 713 q 361 696 378 708 q 341 667 344 682 q 335 633 338 651 q 332 600 333 617 q 328 567 331 583 q 314 431 321 499 q 300 296 307 364 q 306 263 297 276 q 329 242 315 249 q 360 238 343 236 q 393 251 378 239 z "},"P":{"ha":654,"x_min":35,"x_max":701,"o":"m 429 947 q 542 924 490 947 q 631 860 594 900 q 684 765 667 819 q 694 650 701 711 q 658 535 688 589 q 585 442 629 482 q 484 378 540 401 q 367 356 428 356 l 364 356 l 307 356 l 271 0 l 35 0 l 133 947 l 369 947 l 429 947 m 457 651 q 444 694 460 676 q 404 711 428 711 l 344 711 l 332 592 l 392 592 q 435 609 415 592 q 457 651 454 626 z "},"N":{"ha":654,"x_min":35,"x_max":696,"o":"m 657 825 q 685 761 678 793 q 694 696 693 729 q 692 628 696 663 q 685 558 689 593 l 626 0 l 390 0 l 421 296 q 424 326 422 311 q 426 356 425 340 q 436 438 432 397 q 444 521 440 479 q 450 576 447 549 q 456 632 453 604 q 449 688 458 664 q 404 711 440 711 q 354 688 368 711 q 338 633 340 664 q 332 577 335 606 q 326 521 329 549 q 316 427 321 474 q 307 332 311 381 q 305 315 306 324 q 303 296 304 306 l 272 0 l 35 0 l 93 558 q 101 628 97 593 q 113 696 104 663 q 136 762 121 729 q 178 826 151 794 q 292 916 226 885 q 429 947 358 947 q 561 915 501 947 q 657 825 621 883 z "},"R":{"ha":654,"x_min":36,"x_max":700,"o":"m 618 474 q 644 418 636 446 q 656 362 653 390 q 658 303 660 333 q 653 243 656 274 q 640 121 646 181 q 628 0 635 61 l 392 0 q 403 111 397 56 q 414 224 408 167 q 417 247 415 232 q 420 278 419 263 q 419 310 421 294 q 413 333 418 325 q 391 349 404 344 q 363 355 378 354 q 334 355 349 356 q 308 354 319 354 l 272 0 l 214 0 l 36 0 l 135 947 l 313 947 q 410 947 363 947 q 500 938 457 947 q 581 905 543 929 q 653 833 619 881 q 690 747 679 793 q 696 654 700 701 q 672 560 692 607 q 618 474 651 514 m 460 651 q 451 686 463 671 q 422 708 440 701 q 384 712 403 714 q 346 710 365 710 l 333 592 q 372 590 353 592 q 410 594 390 588 q 443 616 429 600 q 460 651 457 632 z "},"S":{"ha":654,"x_min":56,"x_max":700,"o":"m 390 593 q 508 569 456 593 q 594 503 560 544 q 644 410 628 463 q 656 302 661 358 q 624 190 651 246 q 546 88 597 135 q 437 20 494 42 q 323 0 379 -1 q 217 24 267 1 q 130 85 167 46 q 74 177 93 124 q 63 297 56 231 l 300 297 q 307 263 297 278 q 331 242 317 249 q 364 239 346 236 q 397 256 382 242 q 417 287 413 269 q 417 320 422 304 q 399 347 413 336 q 367 357 386 357 q 249 381 301 357 q 163 447 197 406 q 112 540 128 488 q 101 648 96 592 q 132 760 106 704 q 210 863 158 815 q 319 930 261 908 q 433 950 376 951 q 539 926 489 949 q 626 865 589 904 q 681 772 663 826 q 693 653 700 718 l 456 653 q 448 687 457 672 q 424 708 439 701 q 392 711 410 714 q 358 694 374 708 q 339 663 343 681 q 340 630 335 646 q 358 603 344 614 q 390 593 371 593 z "},"L":{"ha":571,"x_min":40,"x_max":560,"o":"m 301 238 l 560 238 l 536 0 l 278 0 l 40 0 l 64 238 l 139 947 l 376 947 l 301 238 l 301 238 z "},"W":{"ha":1025,"x_min":60,"x_max":1085,"o":"m 1085 949 q 1052 622 1068 785 q 1017 294 1036 458 q 952 135 1006 203 q 824 31 899 67 q 667 1 750 -4 q 518 60 585 6 q 356 1 439 6 q 206 31 272 -4 q 99 135 139 67 q 69 294 60 203 q 103 622 85 458 q 138 949 121 785 l 375 949 l 344 653 q 341 623 342 638 q 338 593 340 608 q 329 510 333 551 q 321 428 325 469 l 308 315 q 314 261 306 285 q 358 238 322 238 q 409 261 394 238 q 426 315 424 285 l 439 428 q 449 522 444 475 q 458 617 453 568 l 463 653 l 493 949 l 729 949 l 699 653 l 692 593 q 683 510 688 551 q 675 428 679 469 l 663 315 q 669 261 660 285 q 714 238 678 238 q 765 261 750 238 q 782 315 779 285 l 794 428 q 804 522 800 475 q 814 617 808 568 q 816 634 815 625 q 818 653 817 643 l 849 949 l 1085 949 l 1085 949 z "},"K":{"ha":654,"x_min":38,"x_max":729,"o":"m 729 949 l 443 474 l 631 0 l 365 0 l 293 183 l 275 0 l 38 0 l 61 238 l 136 949 l 314 949 l 374 949 l 354 765 l 464 949 l 729 949 l 729 949 z "},"M":{"ha":1033,"x_min":47,"x_max":1068,"o":"m 1063 654 q 1029 327 1047 490 q 994 0 1011 164 l 757 0 l 788 296 q 790 326 789 311 q 793 356 792 340 q 803 438 799 397 q 811 521 807 479 q 817 576 814 549 q 822 632 819 604 q 817 688 825 664 q 772 711 808 711 q 722 688 736 711 q 704 633 707 664 q 699 577 701 606 q 693 521 696 549 q 683 427 688 474 q 674 332 678 381 l 669 296 l 639 0 l 401 0 l 432 296 l 438 356 q 447 438 443 397 q 456 521 451 479 q 461 576 458 549 q 467 632 464 604 q 461 688 469 664 q 417 711 453 711 q 366 688 381 711 q 349 633 351 664 q 343 577 346 606 q 338 521 340 549 q 327 427 332 474 q 318 332 322 381 q 316 315 317 324 q 314 296 315 306 l 283 0 l 47 0 q 81 327 64 164 q 115 654 97 490 q 149 766 122 715 q 217 855 176 817 q 308 917 257 893 q 411 947 358 942 q 517 939 464 953 q 614 889 569 925 q 722 939 667 925 q 828 947 776 953 q 926 917 881 942 q 1003 855 971 893 q 1052 766 1036 817 q 1063 654 1068 715 z "},"Q":{"ha":654,"x_min":57,"x_max":703,"o":"m 669 385 q 660 311 665 347 q 645 240 656 275 q 617 172 635 206 q 567 106 599 139 l 622 -61 l 360 -61 l 340 0 q 200 29 264 -3 q 97 124 136 61 q 67 192 76 157 q 58 262 58 226 q 60 333 57 297 q 68 407 64 369 q 71 437 68 414 q 76 490 74 460 q 83 554 79 519 q 91 619 88 589 q 97 673 94 650 q 103 703 100 696 q 170 839 119 778 q 292 933 221 900 q 442 964 368 968 q 575 924 517 960 q 668 825 633 888 q 699 682 703 763 q 693 608 697 644 q 685 533 689 571 q 676 460 681 497 q 669 385 672 422 m 361 708 q 340 679 344 694 q 333 644 336 664 q 331 611 332 628 q 326 576 329 594 l 297 301 q 303 268 294 282 q 327 247 313 254 q 359 242 342 240 q 393 256 376 243 q 415 285 411 269 q 421 319 418 300 q 424 353 422 336 q 428 388 425 369 l 457 663 q 450 696 458 682 q 428 717 442 710 q 396 722 414 724 q 361 708 378 721 z "},"T":{"ha":578,"x_min":104,"x_max":644,"o":"m 129 947 l 644 947 l 619 710 l 481 710 l 407 0 l 169 0 l 243 710 l 104 710 l 129 947 l 129 947 z "},"V":{"ha":635,"x_min":121,"x_max":714,"o":"m 474 949 l 714 949 l 465 0 l 172 0 l 121 949 l 361 949 l 379 592 l 474 949 l 474 949 z "},"Z":{"ha":688,"x_min":36,"x_max":756,"o":"m 756 947 l 731 711 l 349 236 l 681 236 l 657 0 l 36 0 l 60 236 l 60 236 l 442 711 l 110 711 l 135 947 l 756 947 l 756 947 z "},"X":{"ha":675,"x_min":18,"x_max":751,"o":"m 751 949 l 511 474 l 653 0 l 397 0 l 351 154 l 274 0 l 18 0 l 257 474 l 117 949 l 372 949 l 419 793 l 496 949 l 751 949 l 751 949 z "},"Y":{"ha":654,"x_min":79,"x_max":717,"o":"m 717 947 q 699 772 707 860 q 681 597 690 685 q 616 432 671 507 q 474 321 561 357 l 440 0 l 204 0 l 238 321 q 117 431 156 357 q 89 597 79 506 q 107 772 99 685 q 125 947 115 860 l 361 947 q 350 835 356 890 q 338 724 344 779 q 332 667 335 696 q 326 611 329 639 q 333 557 324 581 q 378 533 342 533 q 428 557 414 533 q 444 611 442 581 q 450 667 447 639 q 456 724 453 696 q 468 835 463 779 q 479 947 474 890 l 717 947 z "},"?":{"ha":654,"x_min":99,"x_max":697,"o":"m 583 900 q 656 824 629 868 q 690 729 682 779 q 687 628 697 679 q 650 529 676 576 q 582 443 624 482 q 483 381 540 404 l 475 297 l 239 297 q 247 378 243 338 q 256 458 251 418 q 280 535 260 501 q 346 586 300 569 q 385 592 365 593 q 425 606 406 592 q 451 638 444 618 q 451 678 458 658 q 425 707 443 699 q 388 711 407 715 q 353 692 368 707 q 335 653 338 676 l 99 653 q 159 808 108 740 q 281 913 210 876 q 433 949 353 949 q 583 900 514 949 m 350 238 q 430 203 399 238 q 457 119 461 168 q 442 73 454 94 q 413 35 431 51 q 374 10 396 19 q 326 1 351 1 q 281 10 301 1 q 247 35 261 19 q 225 73 232 51 q 221 119 218 94 q 234 166 222 144 q 263 203 246 188 q 303 228 281 219 q 350 238 325 238 z "},"!":{"ha":310,"x_min":43,"x_max":369,"o":"m 369 949 l 301 297 l 64 297 l 132 949 l 369 949 m 175 238 q 256 203 224 238 q 283 119 288 168 q 269 73 281 94 q 239 35 257 51 q 199 10 221 19 q 151 0 176 0 q 106 10 126 0 q 72 35 86 19 q 50 73 57 51 q 46 119 43 94 q 59 166 47 144 q 88 203 71 188 q 128 228 106 219 q 175 238 150 238 z "},":":{"ha":290,"x_min":33,"x_max":353,"o":"m 168 238 q 248 203 217 238 q 274 118 279 168 q 260 72 271 93 q 231 34 249 50 q 192 9 214 18 q 144 0 169 0 q 99 9 119 0 q 63 34 78 18 q 41 72 49 50 q 36 118 33 93 q 80 203 42 168 q 168 238 118 238 m 242 946 q 322 911 290 946 q 347 826 353 876 q 333 780 344 801 q 303 742 321 758 q 264 717 286 726 q 217 708 242 708 q 171 717 192 708 q 135 742 150 726 q 114 780 121 758 q 110 826 107 801 q 153 911 115 876 q 242 946 192 946 z "},";":{"ha":290,"x_min":32,"x_max":353,"o":"m 242 946 q 322 911 290 946 q 347 826 353 876 q 333 780 344 801 q 303 742 321 758 q 264 717 286 726 q 217 708 242 708 q 171 717 192 708 q 135 742 150 726 q 114 780 121 758 q 110 826 107 801 q 153 911 115 876 q 242 946 192 946 m 276 126 q 278 122 276 124 q 276 121 279 121 q 222 -30 267 36 q 108 -147 178 -96 q 78 -151 93 -158 q 64 -126 63 -144 q 65 -94 65 -111 q 63 -62 64 -78 q 54 -33 60 -47 q 44 -4 49 -19 q 35 58 38 28 q 39 121 32 88 q 53 167 42 146 q 83 205 65 189 q 124 230 101 221 q 171 239 146 239 q 250 204 219 239 q 271 165 265 188 q 275 143 275 154 q 276 132 276 139 l 276 126 z "},".":{"ha":289,"x_min":33,"x_max":279,"o":"m 168 238 q 248 203 217 238 q 274 118 279 168 q 260 72 271 93 q 231 34 249 50 q 192 9 214 18 q 144 0 169 0 q 99 9 119 0 q 63 34 78 18 q 41 72 49 50 q 36 118 33 93 q 80 203 42 168 q 168 238 118 238 z "},",":{"ha":293,"x_min":32,"x_max":276,"o":"m 276 121 q 222 -30 267 36 q 108 -147 178 -96 q 78 -151 93 -158 q 64 -126 63 -144 q 65 -94 65 -111 q 63 -62 64 -78 q 54 -33 60 -47 q 44 -4 49 -19 q 35 58 38 28 q 39 121 32 88 q 53 167 42 146 q 83 205 65 189 q 124 230 101 221 q 171 239 146 239 q 250 204 219 239 q 271 165 265 188 q 275 143 275 154 q 276 126 276 140 l 276 121 z "},"D":{"ha":654,"x_min":35,"x_max":700,"o":"m 429 947 q 542 924 490 947 q 629 861 593 901 q 683 767 665 821 q 694 651 700 713 l 657 296 q 622 181 650 235 q 549 88 593 128 q 448 24 504 47 q 331 0 392 0 l 271 0 l 35 0 l 133 947 l 311 947 l 369 947 l 429 947 m 371 239 q 403 260 390 244 q 419 294 417 275 q 428 369 426 332 q 435 444 431 407 q 443 519 439 482 q 450 594 447 557 q 456 630 453 613 q 457 665 460 647 l 457 667 l 457 669 q 456 675 456 671 q 454 676 456 676 q 453 679 454 679 l 453 681 q 449 688 450 686 q 447 690 449 689 q 446 692 447 690 l 444 693 q 443 694 444 694 q 442 696 443 694 l 440 697 l 439 699 q 438 699 438 699 q 436 700 438 700 l 436 701 q 435 703 436 701 l 433 703 q 431 704 432 704 q 429 706 431 704 l 426 706 q 421 708 424 708 q 383 713 401 714 q 344 711 364 711 l 332 592 l 294 238 q 333 235 314 238 q 371 239 351 233 z "},"a":{"ha":654,"x_min":33,"x_max":694,"o":"m 661 814 q 684 759 676 786 q 693 704 692 732 q 692 648 694 676 q 688 589 690 619 q 683 547 685 568 q 679 503 682 525 l 663 354 l 626 0 l 389 0 l 413 236 l 294 236 l 271 0 l 33 0 q 57 235 44 118 q 82 469 69 351 q 87 516 83 483 q 94 586 90 549 q 103 656 99 624 q 111 703 107 689 q 166 812 129 763 q 256 896 203 861 q 369 942 310 931 q 484 942 429 953 q 585 898 539 931 q 661 814 632 865 m 347 675 q 336 642 336 658 q 335 608 336 625 q 327 541 331 575 q 319 474 324 507 l 438 474 q 445 541 442 507 q 453 608 449 575 q 458 642 454 625 q 454 675 461 658 q 435 702 447 694 q 403 710 424 710 q 347 675 364 710 z "},"b":{"ha":654,"x_min":35,"x_max":704,"o":"m 429 947 q 585 901 521 947 q 676 784 649 854 q 691 631 704 714 q 615 474 678 547 q 658 317 663 400 q 612 164 654 235 q 496 47 569 93 q 331 0 422 0 l 271 0 l 211 0 l 35 0 l 133 947 l 310 947 l 369 947 l 429 947 m 419 296 q 406 338 422 321 q 367 356 390 356 l 307 356 l 294 238 l 354 238 q 397 255 378 238 q 419 296 417 272 m 392 593 q 435 610 415 593 q 457 651 454 628 q 444 694 460 676 q 404 711 428 711 l 344 711 l 332 593 l 392 593 z "},"c":{"ha":654,"x_min":61,"x_max":701,"o":"m 651 297 l 656 297 q 608 160 647 222 q 510 59 568 99 q 381 6 451 19 q 243 14 311 -8 q 131 83 176 35 q 71 200 86 132 q 63 267 61 233 q 68 336 64 300 q 75 405 71 371 q 82 475 79 439 q 90 544 86 510 q 97 613 93 578 q 106 682 100 649 q 128 750 113 715 q 213 865 158 817 q 339 935 268 914 q 480 944 413 957 q 597 890 547 931 q 674 788 647 850 q 693 651 701 726 l 457 651 q 444 692 460 675 q 404 711 428 710 q 362 697 381 713 q 338 657 343 681 q 327 565 331 611 q 318 475 324 519 q 308 383 314 429 q 300 293 301 338 q 315 253 299 269 q 354 238 331 236 q 398 256 379 239 q 419 297 417 274 l 651 297 z "},"d":{"ha":654,"x_min":35,"x_max":700,"o":"m 429 947 q 542 924 490 947 q 629 861 593 901 q 683 767 665 821 q 694 651 700 713 l 657 296 q 622 181 650 235 q 549 88 593 128 q 448 24 504 47 q 331 0 392 0 l 271 0 l 35 0 l 133 947 l 311 947 l 369 947 l 429 947 m 371 239 q 403 260 390 244 q 419 294 417 275 q 428 369 426 332 q 435 444 431 407 q 443 519 439 482 q 450 594 447 557 q 456 630 453 613 q 457 665 460 647 l 457 667 l 457 669 q 456 675 456 671 q 454 676 456 676 q 453 679 454 679 l 453 681 q 449 688 450 686 q 447 690 449 689 q 446 692 447 690 l 444 693 q 443 694 444 694 q 442 696 443 694 l 440 697 l 439 699 q 438 699 438 699 q 436 700 438 700 l 436 701 q 435 703 436 701 l 433 703 q 431 704 432 704 q 429 706 431 704 l 426 706 q 421 708 424 708 q 383 713 401 714 q 344 711 364 711 l 332 592 l 294 238 q 333 235 314 238 q 371 239 351 233 z "},"e":{"ha":654,"x_min":29,"x_max":719,"o":"m 694 711 l 339 711 l 326 593 l 682 593 l 657 356 l 301 356 l 289 238 l 644 238 l 621 0 l 265 0 l 207 0 l 29 0 l 128 949 l 306 949 l 364 949 l 719 949 l 694 711 l 694 711 z "},"f":{"ha":654,"x_min":33,"x_max":725,"o":"m 700 711 l 344 711 l 332 592 l 688 592 l 663 356 l 307 356 l 294 238 l 271 0 l 211 0 l 33 0 l 132 947 l 310 947 l 369 947 l 725 947 l 700 711 l 700 711 z "},"g":{"ha":654,"x_min":57,"x_max":697,"o":"m 346 593 l 682 593 l 651 297 q 603 160 643 222 q 506 59 564 99 q 377 6 447 19 q 239 15 307 -7 q 126 85 172 36 q 65 200 81 133 q 58 268 57 235 q 63 336 58 301 q 70 406 67 372 q 76 475 74 440 q 84 544 81 510 q 92 614 88 579 q 101 683 94 649 q 122 750 107 717 q 208 866 153 817 q 335 936 264 915 q 476 944 408 958 q 593 891 543 931 q 670 790 643 851 q 689 653 697 728 l 451 653 q 439 694 454 676 q 400 713 424 711 q 358 697 376 714 q 333 657 339 681 q 323 566 326 611 q 314 475 319 521 q 303 385 310 431 q 296 293 297 339 q 310 253 294 269 q 351 239 326 238 q 393 256 375 239 q 414 297 411 274 l 421 357 l 322 357 l 346 593 z "},"h":{"ha":654,"x_min":32,"x_max":722,"o":"m 486 949 l 722 949 l 685 593 l 660 356 l 624 0 l 388 0 l 424 356 l 304 356 l 268 0 l 32 0 l 68 356 l 93 593 l 131 949 l 367 949 l 329 593 l 449 593 l 486 949 l 486 949 z "},"i":{"ha":329,"x_min":47,"x_max":383,"o":"m 146 947 l 383 947 l 285 0 l 47 0 l 146 947 l 146 947 z "},"j":{"ha":654,"x_min":44,"x_max":714,"o":"m 714 949 l 683 651 l 664 474 q 657 405 661 439 q 650 335 653 371 q 640 267 646 300 q 619 199 635 233 q 532 83 588 132 q 406 13 476 33 q 265 4 332 -10 q 148 58 197 18 q 72 159 99 97 q 53 296 44 221 l 57 296 l 290 296 q 302 255 288 272 q 340 238 317 238 q 383 252 364 236 q 408 292 403 268 q 419 383 415 338 q 426 474 422 429 l 446 656 l 476 949 l 714 949 z "},"k":{"ha":654,"x_min":38,"x_max":729,"o":"m 729 949 l 443 474 l 631 0 l 365 0 l 293 183 l 275 0 l 38 0 l 61 238 l 136 949 l 314 949 l 374 949 l 354 765 l 464 949 l 729 949 l 729 949 z "},"l":{"ha":571,"x_min":40,"x_max":560,"o":"m 301 238 l 560 238 l 536 0 l 278 0 l 40 0 l 64 238 l 139 947 l 376 947 l 301 238 l 301 238 z "},"m":{"ha":1033,"x_min":47,"x_max":1068,"o":"m 1063 654 q 1029 327 1047 490 q 994 0 1011 164 l 757 0 l 788 296 q 790 326 789 311 q 793 356 792 340 q 803 438 799 397 q 811 521 807 479 q 817 576 814 549 q 822 632 819 604 q 817 688 825 664 q 772 711 808 711 q 722 688 736 711 q 704 633 707 664 q 699 577 701 606 q 693 521 696 549 q 683 427 688 474 q 674 332 678 381 l 669 296 l 639 0 l 401 0 l 432 296 l 438 356 q 447 438 443 397 q 456 521 451 479 q 461 576 458 549 q 467 632 464 604 q 461 688 469 664 q 417 711 453 711 q 366 688 381 711 q 349 633 351 664 q 343 577 346 606 q 338 521 340 549 q 327 427 332 474 q 318 332 322 381 q 316 315 317 324 q 314 296 315 306 l 283 0 l 47 0 q 81 327 64 164 q 115 654 97 490 q 149 766 122 715 q 217 855 176 817 q 308 917 257 893 q 411 947 358 942 q 517 939 464 953 q 614 889 569 925 q 722 939 667 925 q 828 947 776 953 q 926 917 881 942 q 1003 855 971 893 q 1052 766 1036 817 q 1063 654 1068 715 z "},"n":{"ha":654,"x_min":35,"x_max":696,"o":"m 657 825 q 685 761 678 793 q 694 696 693 729 q 692 628 696 663 q 685 558 689 593 l 626 0 l 390 0 l 421 296 q 424 326 422 311 q 426 356 425 340 q 436 438 432 397 q 444 521 440 479 q 450 576 447 549 q 456 632 453 604 q 449 688 458 664 q 404 711 440 711 q 354 688 368 711 q 338 633 340 664 q 332 577 335 606 q 326 521 329 549 q 316 427 321 474 q 307 332 311 381 q 305 315 306 324 q 303 296 304 306 l 272 0 l 35 0 l 93 558 q 101 628 97 593 q 113 696 104 663 q 136 762 121 729 q 178 826 151 794 q 292 916 226 885 q 429 947 358 947 q 561 915 501 947 q 657 825 621 883 z "},"o":{"ha":640,"x_min":60,"x_max":694,"o":"m 672 789 q 691 713 688 751 q 690 635 694 675 q 681 554 685 594 q 672 474 676 514 q 664 393 668 433 q 656 313 660 353 q 640 233 651 271 q 606 158 629 196 q 485 42 560 85 q 328 0 411 0 q 179 42 244 0 q 82 157 114 85 q 63 233 67 196 q 64 313 60 271 q 72 393 68 353 q 81 474 76 433 q 89 554 85 514 q 99 635 93 594 q 114 714 103 676 q 149 789 125 751 q 269 905 196 863 q 426 947 343 947 q 576 905 510 947 q 672 789 642 863 m 393 251 q 413 280 410 265 q 419 314 417 294 q 424 347 422 331 q 426 381 425 364 l 456 651 q 449 685 457 671 q 426 706 440 699 q 395 710 413 713 q 361 696 378 708 q 341 667 344 682 q 335 633 338 651 q 332 600 333 617 q 328 567 331 583 q 314 431 321 499 q 300 296 307 364 q 306 263 297 276 q 329 242 315 249 q 360 238 343 236 q 393 251 378 239 z "},"p":{"ha":654,"x_min":35,"x_max":701,"o":"m 429 947 q 542 924 490 947 q 631 860 594 900 q 684 765 667 819 q 694 650 701 711 q 658 535 688 589 q 585 442 629 482 q 484 378 540 401 q 367 356 428 356 l 364 356 l 307 356 l 271 0 l 35 0 l 133 947 l 369 947 l 429 947 m 457 651 q 444 694 460 676 q 404 711 428 711 l 344 711 l 332 592 l 392 592 q 435 609 415 592 q 457 651 454 626 z "},"q":{"ha":654,"x_min":57,"x_max":703,"o":"m 669 385 q 660 311 665 347 q 645 240 656 275 q 617 172 635 206 q 567 106 599 139 l 622 -61 l 360 -61 l 340 0 q 200 29 264 -3 q 97 124 136 61 q 67 192 76 157 q 58 262 58 226 q 60 333 57 297 q 68 407 64 369 q 71 437 68 414 q 76 490 74 460 q 83 554 79 519 q 91 619 88 589 q 97 673 94 650 q 103 703 100 696 q 170 839 119 778 q 292 933 221 900 q 442 964 368 968 q 575 924 517 960 q 668 825 633 888 q 699 682 703 763 q 693 608 697 644 q 685 533 689 571 q 676 460 681 497 q 669 385 672 422 m 361 708 q 340 679 344 694 q 333 644 336 664 q 331 611 332 628 q 326 576 329 594 l 297 301 q 303 268 294 282 q 327 247 313 254 q 359 242 342 240 q 393 256 376 243 q 415 285 411 269 q 421 319 418 300 q 424 353 422 336 q 428 388 425 369 l 457 663 q 450 696 458 682 q 428 717 442 710 q 396 722 414 724 q 361 708 378 721 z "},"r":{"ha":654,"x_min":36,"x_max":700,"o":"m 618 474 q 644 418 636 446 q 656 362 653 390 q 658 303 660 333 q 653 243 656 274 q 640 121 646 181 q 628 0 635 61 l 392 0 q 403 111 397 56 q 414 224 408 167 q 417 247 415 232 q 420 278 419 263 q 419 310 421 294 q 413 333 418 325 q 391 349 404 344 q 363 355 378 354 q 334 355 349 356 q 308 354 319 354 l 272 0 l 214 0 l 36 0 l 135 947 l 313 947 q 410 947 363 947 q 500 938 457 947 q 581 905 543 929 q 653 833 619 881 q 690 747 679 793 q 696 654 700 701 q 672 560 692 607 q 618 474 651 514 m 460 651 q 451 686 463 671 q 422 708 440 701 q 384 712 403 714 q 346 710 365 710 l 333 592 q 372 590 353 592 q 410 594 390 588 q 443 616 429 600 q 460 651 457 632 z "},"s":{"ha":654,"x_min":56,"x_max":700,"o":"m 390 593 q 508 569 456 593 q 594 503 560 544 q 644 410 628 463 q 656 302 661 358 q 624 190 651 246 q 546 88 597 135 q 437 20 494 42 q 323 0 379 -1 q 217 24 267 1 q 130 85 167 46 q 74 177 93 124 q 63 297 56 231 l 300 297 q 307 263 297 278 q 331 242 317 249 q 364 239 346 236 q 397 256 382 242 q 417 287 413 269 q 417 320 422 304 q 399 347 413 336 q 367 357 386 357 q 249 381 301 357 q 163 447 197 406 q 112 540 128 488 q 101 648 96 592 q 132 760 106 704 q 210 863 158 815 q 319 930 261 908 q 433 950 376 951 q 539 926 489 949 q 626 865 589 904 q 681 772 663 826 q 693 653 700 718 l 456 653 q 448 687 457 672 q 424 708 439 701 q 392 711 410 714 q 358 694 374 708 q 339 663 343 681 q 340 630 335 646 q 358 603 344 614 q 390 593 371 593 z "},"t":{"ha":578,"x_min":104,"x_max":644,"o":"m 129 947 l 644 947 l 619 710 l 481 710 l 407 0 l 169 0 l 243 710 l 104 710 l 129 947 l 129 947 z "},"u":{"ha":654,"x_min":58,"x_max":722,"o":"m 722 947 l 685 592 l 672 474 q 664 393 668 433 q 656 313 660 353 q 640 233 651 271 q 604 158 628 196 q 484 42 558 85 q 326 0 410 0 q 178 42 243 0 q 81 157 113 83 q 62 233 65 194 q 63 313 58 271 q 71 393 67 353 q 79 474 75 433 l 93 603 l 129 947 l 367 947 l 336 651 l 329 592 q 321 509 325 550 q 313 426 317 468 q 306 371 310 399 q 300 315 303 343 q 306 260 297 283 q 350 236 314 236 q 401 260 386 236 q 418 315 415 283 q 424 371 421 343 q 431 426 428 399 q 440 521 435 474 q 450 615 444 568 l 454 651 l 485 947 l 722 947 z "},"v":{"ha":635,"x_min":121,"x_max":714,"o":"m 474 949 l 714 949 l 465 0 l 172 0 l 121 949 l 361 949 l 379 592 l 474 949 l 474 949 z "},"w":{"ha":1025,"x_min":60,"x_max":1085,"o":"m 1085 949 q 1052 622 1068 785 q 1017 294 1036 458 q 952 135 1006 203 q 824 31 899 67 q 667 1 750 -4 q 518 60 585 6 q 356 1 439 6 q 206 31 272 -4 q 99 135 139 67 q 69 294 60 203 q 103 622 85 458 q 138 949 121 785 l 375 949 l 344 653 q 341 623 342 638 q 338 593 340 608 q 329 510 333 551 q 321 428 325 469 l 308 315 q 314 261 306 285 q 358 238 322 238 q 409 261 394 238 q 426 315 424 285 l 439 428 q 449 522 444 475 q 458 617 453 568 l 463 653 l 493 949 l 729 949 l 699 653 l 692 593 q 683 510 688 551 q 675 428 679 469 l 663 315 q 669 261 660 285 q 714 238 678 238 q 765 261 750 238 q 782 315 779 285 l 794 428 q 804 522 800 475 q 814 617 808 568 q 816 634 815 625 q 818 653 817 643 l 849 949 l 1085 949 l 1085 949 z "},"x":{"ha":675,"x_min":18,"x_max":751,"o":"m 751 949 l 511 474 l 653 0 l 397 0 l 351 154 l 274 0 l 18 0 l 257 474 l 117 949 l 372 949 l 419 793 l 496 949 l 751 949 l 751 949 z "},"y":{"ha":654,"x_min":79,"x_max":717,"o":"m 717 947 q 699 772 707 860 q 681 597 690 685 q 616 432 671 507 q 474 321 561 357 l 440 0 l 204 0 l 238 321 q 117 431 156 357 q 89 597 79 506 q 107 772 99 685 q 125 947 115 860 l 361 947 q 350 835 356 890 q 338 724 344 779 q 332 667 335 696 q 326 611 329 639 q 333 557 324 581 q 378 533 342 533 q 428 557 414 533 q 444 611 442 581 q 450 667 447 639 q 456 724 453 696 q 468 835 463 779 q 479 947 474 890 l 717 947 z "},"z":{"ha":688,"x_min":36,"x_max":756,"o":"m 756 947 l 731 711 l 349 236 l 681 236 l 657 0 l 36 0 l 60 236 l 60 236 l 442 711 l 110 711 l 135 947 l 756 947 l 756 947 z "},"B":{"ha":654,"x_min":35,"x_max":704,"o":"m 429 947 q 585 901 521 947 q 676 784 649 854 q 691 631 704 714 q 615 474 678 547 q 658 317 663 400 q 612 164 654 235 q 496 47 569 93 q 331 0 422 0 l 271 0 l 211 0 l 35 0 l 133 947 l 310 947 l 369 947 l 429 947 m 419 296 q 406 338 422 321 q 367 356 390 356 l 307 356 l 294 238 l 354 238 q 397 255 378 238 q 419 296 417 272 m 392 593 q 435 610 415 593 q 457 651 454 628 q 444 694 460 676 q 404 711 428 711 l 344 711 l 332 593 l 392 593 z "},"C":{"ha":654,"x_min":61,"x_max":701,"o":"m 651 297 l 656 297 q 608 160 647 222 q 510 59 568 99 q 381 6 451 19 q 243 14 311 -8 q 131 83 176 35 q 71 200 86 132 q 63 267 61 233 q 68 336 64 300 q 75 405 71 371 q 82 475 79 439 q 90 544 86 510 q 97 613 93 578 q 106 682 100 649 q 128 750 113 715 q 213 865 158 817 q 339 935 268 914 q 480 944 413 957 q 597 890 547 931 q 674 788 647 850 q 693 651 701 726 l 457 651 q 444 692 460 675 q 404 711 428 710 q 362 697 381 713 q 338 657 343 681 q 327 565 331 611 q 318 475 324 519 q 308 383 314 429 q 300 293 301 338 q 315 253 299 269 q 354 238 331 236 q 398 256 379 239 q 419 297 417 274 l 651 297 z "},"A":{"ha":654,"x_min":33,"x_max":694,"o":"m 661 814 q 684 759 676 786 q 693 704 692 732 q 692 648 694 676 q 688 589 690 619 q 683 547 685 568 q 679 503 682 525 l 663 354 l 626 0 l 389 0 l 413 236 l 294 236 l 271 0 l 33 0 q 57 235 44 118 q 82 469 69 351 q 87 516 83 483 q 94 586 90 549 q 103 656 99 624 q 111 703 107 689 q 166 812 129 763 q 256 896 203 861 q 369 942 310 931 q 484 942 429 953 q 585 898 539 931 q 661 814 632 865 m 347 675 q 336 642 336 658 q 335 608 336 625 q 327 541 331 575 q 319 474 324 507 l 438 474 q 445 541 442 507 q 453 608 449 575 q 458 642 454 625 q 454 675 461 658 q 435 702 447 694 q 403 710 424 710 q 347 675 364 710 z "}}}
